<?xml version="1.0" encoding="UTF-8" standalone="no"?>
<!-- Created with Inkscape (http://www.inkscape.org/) -->

<svg
   xmlns:dc="http://purl.org/dc/elements/1.1/"
   xmlns:cc="http://creativecommons.org/ns#"
   xmlns:rdf="http://www.w3.org/1999/02/22-rdf-syntax-ns#"
   xmlns:svg="http://www.w3.org/2000/svg"
   xmlns="http://www.w3.org/2000/svg"
   xmlns:xlink="http://www.w3.org/1999/xlink"
   xmlns:sodipodi="http://sodipodi.sourceforge.net/DTD/sodipodi-0.dtd"
   xmlns:inkscape="http://www.inkscape.org/namespaces/inkscape"
   width="99.974434"
   height="99.990967"
   id="svg3121"
   version="1.1"
   inkscape:version="0.48.2 r9819"
   sodipodi:docname="neuron_bipolar.svg">
  <defs
     id="defs3123">
    <radialGradient
       cx="289.64285"
       cy="543.9693"
       r="14.785714"
       fx="289.64285"
       fy="543.9693"
       id="radialGradient48"
       xlink:href="#linearGradient5193-7"
       gradientUnits="userSpaceOnUse"
       gradientTransform="matrix(1,0,0,0.91545894,0,45.987743)" />
    <linearGradient
       id="linearGradient5193-7">
      <stop
         id="stop5195-4"
         style="stop-color:#dd0909;stop-opacity:1"
         offset="0" />
      <stop
         id="stop5205-0"
         style="stop-color:#ef3636;stop-opacity:0.49803922"
         offset="0.5" />
      <stop
         id="stop5197-9"
         style="stop-color:#ab4e4e;stop-opacity:0.54315788"
         offset="1" />
    </linearGradient>
    <radialGradient
       r="14.785714"
       fy="543.9693"
       fx="289.64285"
       cy="543.9693"
       cx="289.64285"
       gradientTransform="matrix(1,0,0,0.91545894,0,45.987743)"
       gradientUnits="userSpaceOnUse"
       id="radialGradient3119"
       xlink:href="#linearGradient5193-7"
       inkscape:collect="always" />
    <radialGradient
       cx="289.64285"
       cy="543.9693"
       r="14.785714"
       fx="289.64285"
       fy="543.9693"
       id="radialGradient48-1"
       xlink:href="#linearGradient5193-7-8"
       gradientUnits="userSpaceOnUse"
       gradientTransform="matrix(1,0,0,0.91545894,0,45.987743)" />
    <linearGradient
       id="linearGradient5193-7-8">
      <stop
         id="stop5195-4-7"
         style="stop-color:#dd0909;stop-opacity:1"
         offset="0" />
      <stop
         id="stop5205-0-1"
         style="stop-color:#ef3636;stop-opacity:0.49803922"
         offset="0.5" />
      <stop
         id="stop5197-9-5"
         style="stop-color:#ab4e4e;stop-opacity:0.54315788"
         offset="1" />
    </linearGradient>
    <radialGradient
       r="14.785714"
       fy="543.9693"
       fx="289.64285"
       cy="543.9693"
       cx="289.64285"
       gradientTransform="matrix(1,0,0,0.91545894,0,45.987743)"
       gradientUnits="userSpaceOnUse"
       id="radialGradient3119-5"
       xlink:href="#linearGradient5193-7-8"
       inkscape:collect="always" />
    <radialGradient
       cx="289.64285"
       cy="543.9693"
       r="14.785714"
       fx="289.64285"
       fy="543.9693"
       id="radialGradient5223"
       xlink:href="#linearGradient5193-7-9"
       gradientUnits="userSpaceOnUse"
       gradientTransform="matrix(1,0,0,0.91545894,0,45.987743)" />
    <linearGradient
       id="linearGradient5193-7-9">
      <stop
         id="stop5195-4-0"
         style="stop-color:#dd0909;stop-opacity:1"
         offset="0" />
      <stop
         id="stop5205-0-5"
         style="stop-color:#ef3636;stop-opacity:0.49803922"
         offset="0.5" />
      <stop
         id="stop5197-9-56"
         style="stop-color:#ab4e4e;stop-opacity:0.54315788"
         offset="1" />
    </linearGradient>
    <radialGradient
       r="14.785714"
       fy="543.9693"
       fx="289.64285"
       cy="543.9693"
       cx="289.64285"
       gradientTransform="matrix(1,0,0,0.91545894,0,45.987743)"
       gradientUnits="userSpaceOnUse"
       id="radialGradient3212"
       xlink:href="#linearGradient5193-7-9"
       inkscape:collect="always" />
  </defs>
  <sodipodi:namedview
     id="base"
     pagecolor="#ffffff"
     bordercolor="#666666"
     borderopacity="1.0"
     inkscape:pageopacity="0.0"
     inkscape:pageshadow="2"
     inkscape:zoom="3.9803596"
     inkscape:cx="49.987217"
     inkscape:cy="49.995483"
     inkscape:document-units="px"
     inkscape:current-layer="layer1"
     showgrid="false"
     inkscape:window-width="1011"
     inkscape:window-height="616"
     inkscape:window-x="194"
     inkscape:window-y="99"
     inkscape:window-maximized="0"
     fit-margin-top="0"
     fit-margin-left="0"
     fit-margin-right="0"
     fit-margin-bottom="0" />
  <metadata
     id="metadata3126">
    <rdf:RDF>
      <cc:Work
         rdf:about="">
        <dc:format>image/svg+xml</dc:format>
        <dc:type
           rdf:resource="http://purl.org/dc/dcmitype/StillImage" />
        <dc:title />
      </cc:Work>
    </rdf:RDF>
  </metadata>
  <g
     inkscape:label="Layer 1"
     inkscape:groupmode="layer"
     id="layer1"
     transform="translate(-45.730082,-818.4558)">
    <g
       transform="matrix(0.20572114,0.18392114,-0.20753849,0.1823106,106.97386,672.89454)"
       id="g38">
      <path
         inkscape:connector-curvature="0"
         d="m 471.42978,388.08989 c -2.31776,-1.81744 -9.71837,-50.40735 -13.24212,-48.20507 -2.85764,1.78597 11.30569,25.65573 1.13733,27.82116 -2.05726,0.43811 -10.77008,-5.60685 -27.6765,-3.70706 -3.68968,0.41461 18.45175,0.56567 28.89282,8.35918 7.65278,5.71225 5.59243,16.60673 2.76042,17.77923 -6.68873,2.76925 -28.68081,-14.07993 -34.33368,-15.73592 -5.08156,-1.48864 16.5933,11.92369 18.68194,17.50181 1.13569,3.03307 -19.92101,2.47142 -16.35281,3.96226 10.95462,4.57698 15.06234,-7.1146 69.73049,5.10418 6.30693,1.40965 8.44691,11.11226 13.25804,19.60681 9.52466,16.81675 -1.37452,49.59302 1.42858,91.07143 1.12387,16.63038 -36.24887,21.82651 -38.57143,56.42857 -1.18549,17.66174 46.6816,33.63194 47.14286,42.85714 l 2.85714,57.14286 c 3.16611,63.32231 -25.89356,72.77872 -41.42857,94.28571 7.62768,-7.54052 20.69193,-18.21456 28.61922,-25.72952 6.65926,-6.31288 10.85714,-0.79364 7.78345,4.21959 -4.78174,7.79907 -8.46701,11.53106 -11.58906,17.63863 -3.3891,6.63 -21.3293,2.92174 -28.06823,14.66501 11.35163,-9.36941 15.7703,-5.70265 16.16058,2.09681 0.42401,8.47374 3.42149,14.33975 4.67757,16.46927 1.90826,3.23521 -6.62053,-25.39692 -1.01322,-24.89736 8.30632,0.74003 15.47709,-14.79796 21.64737,-21.51063 8.17093,-8.88918 13.97323,4.55796 2.90765,20.79908 -3.81025,5.59235 -10.51772,14.99974 -8.75937,13.06318 20.60989,-22.69869 6.90293,3.5853 2.1936,16.86135 -1.90021,5.35686 7.79881,-15.72766 11.50851,-22.51752 1.13219,-2.07225 0.26757,-8.47174 0.56812,-10.26157 5.31648,-31.66056 9.6789,20.51861 12.40331,23.43124 1.92897,2.06222 -3.20288,-12.05461 0.0468,-16.89793 1.16332,-1.73382 5.54682,0.94542 8.74345,1.25104 5.15871,0.49321 -12.39086,-7.83978 -10.28422,-10.02022 1.6069,-1.66319 -2.18337,-11.91852 0.31954,-9.49731 6.92529,6.69922 33.97164,14.11781 37.84924,7.97972 -6.25055,1.15858 -18.92758,-0.24514 -24.88346,-4.46976 -3.60134,-2.5545 7.21642,-9.86016 7.79908,-12.27463 0.95256,-3.9473 -10.9012,9.08842 -13.04712,8.35703 -30.85866,-10.51757 -25.92671,-32.17267 -18.7971,-75.54121 1.6461,-10.01303 1.45161,-27.72674 3.11413,-65.44748 0.45643,-10.35594 27.56402,-40.82666 25.81444,-58.48109 -1.58438,-15.98738 -38.05829,-25.36414 -37.85715,-41.42858 0.51162,-40.86035 -7.72323,-46.98471 5,-87.85714 5.92591,-19.03652 38.57143,-45.71428 38.57143,-45.71428 -1.33212,-0.54798 -24.32915,15.87033 -26.7929,16.16992 -5.95206,0.72376 2.36749,-29.94897 1.10998,-28.84375 -8.40952,7.39103 -1.7999,40.28965 -14.32219,43.63458 -11.61757,3.10326 -25.19103,-15.52801 -30.69115,-21.66924 -2.47022,-2.75816 -5.86197,-14.42978 3.58418,-24.28447 3.84088,-4.007 14.06183,-11.4441 10.6515,-10.1581 -4.27766,1.61307 -12.41604,10.58088 -13.66242,6.26572 -1.63499,-5.66059 8.20761,-25.19412 6.66592,-22.00137 -34.20678,39.11834 13.42428,72.46233 -32.25599,52.3287 z"
         id="path2987"
         style="fill:none;stroke:#000000;stroke-width:1px;stroke-linecap:butt;stroke-linejoin:miter;stroke-opacity:1" />
      <path
         inkscape:connector-curvature="0"
         d="m 303.92857,543.9693 a 14.285715,13.035715 0 1 1 -28.57143,0 14.285715,13.035715 0 1 1 28.57143,0 z"
         transform="translate(228.92858,20.178597)"
         id="path2989-4"
         style="fill:url(#radialGradient3212);fill-opacity:1;stroke:#000000;stroke-width:1;stroke-linejoin:round;stroke-miterlimit:4;stroke-opacity:1;stroke-dasharray:none;stroke-dashoffset:0" />
    </g>
  </g>
</svg>
