<?xml version="1.0" encoding="UTF-8" standalone="no"?>
<!-- Created with Inkscape (http://www.inkscape.org/) -->

<svg
   xmlns:dc="http://purl.org/dc/elements/1.1/"
   xmlns:cc="http://creativecommons.org/ns#"
   xmlns:rdf="http://www.w3.org/1999/02/22-rdf-syntax-ns#"
   xmlns:svg="http://www.w3.org/2000/svg"
   xmlns="http://www.w3.org/2000/svg"
   xmlns:xlink="http://www.w3.org/1999/xlink"
   xmlns:sodipodi="http://sodipodi.sourceforge.net/DTD/sodipodi-0.dtd"
   xmlns:inkscape="http://www.inkscape.org/namespaces/inkscape"
   width="99.992668"
   height="97.030579"
   id="svg3121"
   version="1.1"
   inkscape:version="0.48.2 r9819"
   sodipodi:docname="neuron_pseudounipolares.svg">
  <defs
     id="defs3123">
    <radialGradient
       cx="289.64285"
       cy="543.9693"
       r="14.785714"
       fx="289.64285"
       fy="543.9693"
       id="radialGradient48"
       xlink:href="#linearGradient5193-7"
       gradientUnits="userSpaceOnUse"
       gradientTransform="matrix(1,0,0,0.91545894,0,45.987743)" />
    <linearGradient
       id="linearGradient5193-7">
      <stop
         id="stop5195-4"
         style="stop-color:#dd0909;stop-opacity:1"
         offset="0" />
      <stop
         id="stop5205-0"
         style="stop-color:#ef3636;stop-opacity:0.49803922"
         offset="0.5" />
      <stop
         id="stop5197-9"
         style="stop-color:#ab4e4e;stop-opacity:0.54315788"
         offset="1" />
    </linearGradient>
    <radialGradient
       cx="289.64285"
       cy="543.9693"
       r="14.785714"
       fx="289.64285"
       fy="543.9693"
       id="radialGradient48-1"
       xlink:href="#linearGradient5193-7-8"
       gradientUnits="userSpaceOnUse"
       gradientTransform="matrix(1,0,0,0.91545894,0,45.987743)" />
    <linearGradient
       id="linearGradient5193-7-8">
      <stop
         id="stop5195-4-7"
         style="stop-color:#dd0909;stop-opacity:1"
         offset="0" />
      <stop
         id="stop5205-0-1"
         style="stop-color:#ef3636;stop-opacity:0.49803922"
         offset="0.5" />
      <stop
         id="stop5197-9-5"
         style="stop-color:#ab4e4e;stop-opacity:0.54315788"
         offset="1" />
    </linearGradient>
    <radialGradient
       cx="289.64285"
       cy="543.9693"
       r="14.785714"
       fx="289.64285"
       fy="543.9693"
       id="radialGradient5223"
       xlink:href="#linearGradient5193-7-9"
       gradientUnits="userSpaceOnUse"
       gradientTransform="matrix(1,0,0,0.91545894,0,45.987743)" />
    <linearGradient
       id="linearGradient5193-7-9">
      <stop
         id="stop5195-4-0"
         style="stop-color:#dd0909;stop-opacity:1"
         offset="0" />
      <stop
         id="stop5205-0-5"
         style="stop-color:#ef3636;stop-opacity:0.49803922"
         offset="0.5" />
      <stop
         id="stop5197-9-56"
         style="stop-color:#ab4e4e;stop-opacity:0.54315788"
         offset="1" />
    </linearGradient>
    <radialGradient
       cx="289.64285"
       cy="543.9693"
       r="14.785714"
       fx="289.64285"
       fy="543.9693"
       id="radialGradient5223-2"
       xlink:href="#linearGradient5193-7-5"
       gradientUnits="userSpaceOnUse"
       gradientTransform="matrix(1,0,0,0.91545894,0,45.987743)" />
    <linearGradient
       id="linearGradient5193-7-5">
      <stop
         id="stop5195-4-6"
         style="stop-color:#dd0909;stop-opacity:1"
         offset="0" />
      <stop
         id="stop5205-0-3"
         style="stop-color:#ef3636;stop-opacity:0.49803922"
         offset="0.5" />
      <stop
         id="stop5197-9-4"
         style="stop-color:#ab4e4e;stop-opacity:0.54315788"
         offset="1" />
    </linearGradient>
    <radialGradient
       cx="289.64285"
       cy="543.9693"
       r="14.785714"
       fx="289.64285"
       fy="543.9693"
       id="radialGradient78"
       xlink:href="#linearGradient5193-7-7"
       gradientUnits="userSpaceOnUse"
       gradientTransform="matrix(1,0,0,0.91545894,0,45.987743)" />
    <linearGradient
       id="linearGradient5193-7-7">
      <stop
         id="stop5195-4-1"
         style="stop-color:#dd0909;stop-opacity:1"
         offset="0" />
      <stop
         id="stop5205-0-8"
         style="stop-color:#ef3636;stop-opacity:0.49803922"
         offset="0.5" />
      <stop
         id="stop5197-9-49"
         style="stop-color:#ab4e4e;stop-opacity:0.54315788"
         offset="1" />
    </linearGradient>
    <radialGradient
       r="14.785714"
       fy="543.9693"
       fx="289.64285"
       cy="543.9693"
       cx="289.64285"
       gradientTransform="matrix(1,0,0,0.91545894,0,45.987743)"
       gradientUnits="userSpaceOnUse"
       id="radialGradient3297"
       xlink:href="#linearGradient5193-7-7"
       inkscape:collect="always" />
    <radialGradient
       cx="289.64285"
       cy="543.9693"
       r="14.785714"
       fx="289.64285"
       fy="543.9693"
       id="radialGradient5203"
       xlink:href="#linearGradient5193"
       gradientUnits="userSpaceOnUse"
       gradientTransform="matrix(1,0,0,0.91545894,0,45.987743)" />
    <linearGradient
       id="linearGradient5193">
      <stop
         id="stop5195"
         style="stop-color:#dd0909;stop-opacity:1"
         offset="0" />
      <stop
         id="stop5205"
         style="stop-color:#ef3636;stop-opacity:0.49803922"
         offset="0.5" />
      <stop
         id="stop5197"
         style="stop-color:#ab4e4e;stop-opacity:0.54315788"
         offset="1" />
    </linearGradient>
    <radialGradient
       r="14.785714"
       fy="543.9693"
       fx="289.64285"
       cy="543.9693"
       cx="289.64285"
       gradientTransform="matrix(1,0,0,0.91545894,0,45.987743)"
       gradientUnits="userSpaceOnUse"
       id="radialGradient3379"
       xlink:href="#linearGradient5193"
       inkscape:collect="always" />
  </defs>
  <sodipodi:namedview
     id="base"
     pagecolor="#ffffff"
     bordercolor="#666666"
     borderopacity="1.0"
     inkscape:pageopacity="0.0"
     inkscape:pageshadow="2"
     inkscape:zoom="4.1017997"
     inkscape:cx="49.996334"
     inkscape:cy="48.515289"
     inkscape:document-units="px"
     inkscape:current-layer="layer1"
     showgrid="false"
     inkscape:window-width="1011"
     inkscape:window-height="616"
     inkscape:window-x="200"
     inkscape:window-y="70"
     inkscape:window-maximized="0"
     fit-margin-top="0"
     fit-margin-left="0"
     fit-margin-right="0"
     fit-margin-bottom="0" />
  <metadata
     id="metadata3126">
    <rdf:RDF>
      <cc:Work
         rdf:about="">
        <dc:format>image/svg+xml</dc:format>
        <dc:type
           rdf:resource="http://purl.org/dc/dcmitype/StillImage" />
        <dc:title />
      </cc:Work>
    </rdf:RDF>
  </metadata>
  <g
     inkscape:label="Layer 1"
     inkscape:groupmode="layer"
     id="layer1"
     transform="translate(-35.374557,-816.82489)">
    <g
       transform="matrix(0.18135776,0.26442303,-0.25728033,0.18639267,186.81309,712.82896)"
       id="g34">
      <path
         inkscape:connector-curvature="0"
         d="m 221.93891,533.79075 c -4.45761,-21.64651 -14.92315,-40.10426 -19.01742,-93.98367 -0.52773,-6.94473 28.79747,-6.8702 40.00636,-14.32719 19.22304,-12.78859 29.71763,-20.96198 29.21501,-30.26057 -9.96438,16.59398 -33.86694,29.32223 -49.17752,31.23125 -16.78456,2.0928 10.39619,-25.4843 14.17675,-47.04208 0.73632,-4.19866 -28.84672,53.57209 -21.9629,-4.03551 -7.27541,11.60949 -0.87677,25.66688 -2.1393,34.36592 -2.34894,16.18449 -6.6911,21.81712 -9.4598,21.85352 -18.69231,0.24574 -14.49626,-39.1216 -16.95573,-60.94949 6.87609,-4.82747 33.27728,-11.1919 32.08291,-15.91148 -0.2352,-0.9294 -36.67942,24.2385 -32.55267,-13.07392 -9.90901,26.63004 16.84999,119.12617 -34.26262,34.10535 6.72244,20.81583 21.40779,27.07719 13.76756,35.94494 -2.73395,3.17319 -13.69884,-31.4122 -31.66225,-43.67468 11.39473,11.82408 26.04652,56.63717 38.73368,49.40996 21.08246,-12.00959 25.94039,46.2896 27.98331,57.77622 16.00426,89.9862 11.13465,50.95239 12.14286,141.42858 8.7017,59.00255 -21.14206,44.31524 -32.85714,64.28571 20.62884,-14.37288 20.74956,-5.50061 20.07125,11.24041 2.91888,-30.19593 16.93722,-34.98849 15.34804,-25.12853 -0.91252,5.66173 -7.1535,16.26128 -13.69406,33.72635 -1.62713,4.34486 -14.63701,6.58923 -16.22378,11.81356 34.5454,-20.92579 1.03117,13.73495 5.75742,9.55024 8.15497,-6.60921 16.06887,-13.7196 17.02517,-18.89879 11.64563,-63.07154 16.02462,33.72587 16.11785,24.06051 0.14449,-14.97816 4.48244,-10.64429 5.45096,-7.24427 2.29115,8.04321 -2.48505,-7.84144 -3.71271,-12.86375 -3.75511,-15.36209 -3.69637,-26.26244 -2.59362,-33.71973 1.66357,-11.24977 13.7975,15.63357 26.92647,48.13148 1.69039,4.18421 -3.81734,-28.67087 -6.73517,-29.97154 -38.88459,-58.8516 11.0947,-40.83729 30.54789,-14.98165 -16.51407,-33.31702 -51.60865,-23.93618 -54.719,-59.06908 -2.92229,-33.00857 -4.12877,-55.23629 5.43329,-67.35949 2.6541,-3.36498 16.42857,2.85714 16.42857,2.85714 0,0 18.07045,38.34648 58.57143,27.85715 40.50098,-10.48934 42.53733,-48.80793 10,-69.28572 -29.71574,-18.70199 -58.44238,-5.91363 -64.93002,30.06733 0,0 -21.19637,1.47059 -23.13107,-7.92448 z"
         id="path2985"
         style="fill:none;stroke:#000000;stroke-width:1px;stroke-linecap:butt;stroke-linejoin:miter;stroke-opacity:1" />
      <path
         inkscape:connector-curvature="0"
         d="m 303.92857,543.9693 a 14.285715,13.035715 0 1 1 -28.57143,0 14.285715,13.035715 0 1 1 28.57143,0 z"
         id="path2989"
         style="fill:url(#radialGradient3379);fill-opacity:1;stroke:#000000;stroke-width:1;stroke-linejoin:round;stroke-miterlimit:4;stroke-opacity:1;stroke-dasharray:none;stroke-dashoffset:0" />
    </g>
  </g>
</svg>
