<?xml version="1.0" encoding="UTF-8" standalone="no"?>
<!-- Created with Inkscape (http://www.inkscape.org/) -->

<svg
   xmlns:dc="http://purl.org/dc/elements/1.1/"
   xmlns:cc="http://creativecommons.org/ns#"
   xmlns:rdf="http://www.w3.org/1999/02/22-rdf-syntax-ns#"
   xmlns:svg="http://www.w3.org/2000/svg"
   xmlns="http://www.w3.org/2000/svg"
   xmlns:xlink="http://www.w3.org/1999/xlink"
   xmlns:sodipodi="http://sodipodi.sourceforge.net/DTD/sodipodi-0.dtd"
   xmlns:inkscape="http://www.inkscape.org/namespaces/inkscape"
   width="99.877518"
   height="100.57475"
   id="svg3121"
   version="1.1"
   inkscape:version="0.48.2 r9819"
   sodipodi:docname="neuron_unipolar.svg">
  <defs
     id="defs3123">
    <radialGradient
       cx="289.64285"
       cy="543.9693"
       r="14.785714"
       fx="289.64285"
       fy="543.9693"
       id="radialGradient48"
       xlink:href="#linearGradient5193-7"
       gradientUnits="userSpaceOnUse"
       gradientTransform="matrix(1,0,0,0.91545894,0,45.987743)" />
    <linearGradient
       id="linearGradient5193-7">
      <stop
         id="stop5195-4"
         style="stop-color:#dd0909;stop-opacity:1"
         offset="0" />
      <stop
         id="stop5205-0"
         style="stop-color:#ef3636;stop-opacity:0.49803922"
         offset="0.5" />
      <stop
         id="stop5197-9"
         style="stop-color:#ab4e4e;stop-opacity:0.54315788"
         offset="1" />
    </linearGradient>
    <radialGradient
       r="14.785714"
       fy="543.9693"
       fx="289.64285"
       cy="543.9693"
       cx="289.64285"
       gradientTransform="matrix(1,0,0,0.91545894,0,45.987743)"
       gradientUnits="userSpaceOnUse"
       id="radialGradient3119"
       xlink:href="#linearGradient5193-7"
       inkscape:collect="always" />
  </defs>
  <sodipodi:namedview
     id="base"
     pagecolor="#ffffff"
     bordercolor="#666666"
     borderopacity="1.0"
     inkscape:pageopacity="0.0"
     inkscape:pageshadow="2"
     inkscape:zoom="3.9572556"
     inkscape:cx="49.938759"
     inkscape:cy="50.287376"
     inkscape:document-units="px"
     inkscape:current-layer="layer1"
     showgrid="false"
     inkscape:window-width="1011"
     inkscape:window-height="616"
     inkscape:window-x="112"
     inkscape:window-y="20"
     inkscape:window-maximized="0"
     fit-margin-top="0"
     fit-margin-left="0"
     fit-margin-right="0"
     fit-margin-bottom="0" />
  <metadata
     id="metadata3126">
    <rdf:RDF>
      <cc:Work
         rdf:about="">
        <dc:format>image/svg+xml</dc:format>
        <dc:type
           rdf:resource="http://purl.org/dc/dcmitype/StillImage" />
        <dc:title />
      </cc:Work>
    </rdf:RDF>
  </metadata>
  <g
     inkscape:label="Layer 1"
     inkscape:groupmode="layer"
     id="layer1"
     transform="translate(-78.82753,-788.42795)">
    <g
       transform="matrix(0.37727621,0.23841041,-0.29771266,0.3021255,71.703057,577.69577)"
       id="g42">
      <path
         inkscape:connector-curvature="0"
         d="m 208.375,12.59375 c 9.3413,48.5045 3.0975,46.169254 -18.65625,2.40625 4.28942,27.101254 11.75367,26.247732 17.1875,39.4375 8.2747,20.085551 -1.50002,22.418361 -11.40625,15.53125 -5.38011,-3.740419 -9.45138,-11.111708 -13.75,-17.78125 -1.52516,0.966602 1.98224,8.164097 6.21875,13.03125 3.7268,4.281563 3.17454,6.635632 6.53125,8.875 -6.33501,-2.865807 -13.29724,-8.692533 -19.34375,-12.125 13.07369,18.722078 18.86286,15.882495 35.15625,14.6875 6.43964,9.263882 14.57291,23.57034 16.53125,32.875 2.42415,19.17409 -20.1212,45.37738 -33.28125,84.8125 -5.27641,15.81114 -45.7888,4.74566 -57.09375,37.53125 -16.10703,46.71214 58.63355,91.02542 84.21875,16.8125 5.23626,-15.18842 -25.5997,-37.90312 -19.3125,-52.6875 15.99168,-37.60447 10.70711,-46.39721 38,-79.375 12.6338,-7.67401 34.15102,-0.84331 41.6875,-10.9375 -17.8781,6.68642 -23.86779,4.78387 -2.25,-13.1875 -6.7176,4.515372 -22.2167,13.3464 -29.96875,16.4375 -6.66367,-1.06086 2.1189,-16.403877 8.46875,-28.96875 3.28435,-3.108867 6.937,-6.225762 13.5625,-6.5 6.4416,-0.355775 20.99316,2.658817 26.125,-2.21875 -7.63476,-0.0448 -15.74074,0.943816 -23.9375,0.375 14.67115,-0.556064 10.4086,-3.720565 23.65625,-6.21875 -9.33185,0.128162 -23.99919,1.990387 -32.65625,6.125 -1.75782,0.995277 -2.82439,2.461429 -4.34375,3.5625 0.52739,-1.131158 1.02186,-2.234235 1.4375,-3.25 2.06482,-5.045153 8.02328,-18.607598 10.34375,-25.40625 1.0125,-2.966484 0.84726,-6.634478 0.53125,-9.40625 -0.45522,-3.992745 -2.73569,-7.322451 -12.125,-11.6875 8.11145,10.536673 9.23084,21.444051 7.03125,24.21875 -2.58803,3.264697 1.24963,-10.671238 -28.625,-14.84375 21.31337,11.219754 27.47489,15.183956 23.4375,24.90625 -8.60237,12.023769 -18.11262,49.32007 -30.69892,56.80235 3.16557,-8.72029 -15.47287,-35.569713 -16.08233,-43.11485 -0.92364,-11.434791 6.35852,-39.338275 -6.59375,-60.71875 z"
         transform="matrix(0.92507235,-0.37979093,0.37979093,0.92507235,262.83721,405.39613)"
         id="path44"
         style="fill:none;stroke:#000000;stroke-width:1px;stroke-linecap:butt;stroke-linejoin:miter;stroke-opacity:1" />
      <path
         inkscape:connector-curvature="0"
         d="m 303.92857,543.9693 a 14.285715,13.035715 0 1 1 -28.57143,0 14.285715,13.035715 0 1 1 28.57143,0 z"
         transform="matrix(-0.21966878,0.97557451,-0.97557451,-0.21966878,1112.8861,401.06983)"
         id="path46"
         style="fill:url(#radialGradient3119);fill-opacity:1;stroke:#000000;stroke-width:1;stroke-linejoin:round;stroke-miterlimit:4;stroke-opacity:1;stroke-dasharray:none;stroke-dashoffset:0" />
    </g>
  </g>
</svg>
