<?xml version="1.0" encoding="UTF-8" standalone="no"?>
<!-- Created with Inkscape (http://www.inkscape.org/) -->

<svg
   xmlns:dc="http://purl.org/dc/elements/1.1/"
   xmlns:cc="http://creativecommons.org/ns#"
   xmlns:rdf="http://www.w3.org/1999/02/22-rdf-syntax-ns#"
   xmlns:svg="http://www.w3.org/2000/svg"
   xmlns="http://www.w3.org/2000/svg"
   xmlns:xlink="http://www.w3.org/1999/xlink"
   xmlns:sodipodi="http://sodipodi.sourceforge.net/DTD/sodipodi-0.dtd"
   xmlns:inkscape="http://www.inkscape.org/namespaces/inkscape"
   width="99.76104"
   height="110.60127"
   id="svg3121"
   version="1.1"
   inkscape:version="0.48.2 r9819"
   sodipodi:docname="neuron_multipolares.svg">
  <defs
     id="defs3123">
    <radialGradient
       cx="289.64285"
       cy="543.9693"
       r="14.785714"
       fx="289.64285"
       fy="543.9693"
       id="radialGradient48"
       xlink:href="#linearGradient5193-7"
       gradientUnits="userSpaceOnUse"
       gradientTransform="matrix(1,0,0,0.91545894,0,45.987743)" />
    <linearGradient
       id="linearGradient5193-7">
      <stop
         id="stop5195-4"
         style="stop-color:#dd0909;stop-opacity:1"
         offset="0" />
      <stop
         id="stop5205-0"
         style="stop-color:#ef3636;stop-opacity:0.49803922"
         offset="0.5" />
      <stop
         id="stop5197-9"
         style="stop-color:#ab4e4e;stop-opacity:0.54315788"
         offset="1" />
    </linearGradient>
    <radialGradient
       cx="289.64285"
       cy="543.9693"
       r="14.785714"
       fx="289.64285"
       fy="543.9693"
       id="radialGradient48-1"
       xlink:href="#linearGradient5193-7-8"
       gradientUnits="userSpaceOnUse"
       gradientTransform="matrix(1,0,0,0.91545894,0,45.987743)" />
    <linearGradient
       id="linearGradient5193-7-8">
      <stop
         id="stop5195-4-7"
         style="stop-color:#dd0909;stop-opacity:1"
         offset="0" />
      <stop
         id="stop5205-0-1"
         style="stop-color:#ef3636;stop-opacity:0.49803922"
         offset="0.5" />
      <stop
         id="stop5197-9-5"
         style="stop-color:#ab4e4e;stop-opacity:0.54315788"
         offset="1" />
    </linearGradient>
    <radialGradient
       cx="289.64285"
       cy="543.9693"
       r="14.785714"
       fx="289.64285"
       fy="543.9693"
       id="radialGradient5223"
       xlink:href="#linearGradient5193-7-9"
       gradientUnits="userSpaceOnUse"
       gradientTransform="matrix(1,0,0,0.91545894,0,45.987743)" />
    <linearGradient
       id="linearGradient5193-7-9">
      <stop
         id="stop5195-4-0"
         style="stop-color:#dd0909;stop-opacity:1"
         offset="0" />
      <stop
         id="stop5205-0-5"
         style="stop-color:#ef3636;stop-opacity:0.49803922"
         offset="0.5" />
      <stop
         id="stop5197-9-56"
         style="stop-color:#ab4e4e;stop-opacity:0.54315788"
         offset="1" />
    </linearGradient>
    <radialGradient
       r="14.785714"
       fy="543.9693"
       fx="289.64285"
       cy="543.9693"
       cx="289.64285"
       gradientTransform="matrix(1,0,0,0.91545894,0,45.987743)"
       gradientUnits="userSpaceOnUse"
       id="radialGradient3212"
       xlink:href="#linearGradient5193-7-9"
       inkscape:collect="always" />
    <radialGradient
       cx="289.64285"
       cy="543.9693"
       r="14.785714"
       fx="289.64285"
       fy="543.9693"
       id="radialGradient5223-2"
       xlink:href="#linearGradient5193-7-5"
       gradientUnits="userSpaceOnUse"
       gradientTransform="matrix(1,0,0,0.91545894,0,45.987743)" />
    <linearGradient
       id="linearGradient5193-7-5">
      <stop
         id="stop5195-4-6"
         style="stop-color:#dd0909;stop-opacity:1"
         offset="0" />
      <stop
         id="stop5205-0-3"
         style="stop-color:#ef3636;stop-opacity:0.49803922"
         offset="0.5" />
      <stop
         id="stop5197-9-4"
         style="stop-color:#ab4e4e;stop-opacity:0.54315788"
         offset="1" />
    </linearGradient>
    <radialGradient
       r="14.785714"
       fy="543.9693"
       fx="289.64285"
       cy="543.9693"
       cx="289.64285"
       gradientTransform="matrix(1,0,0,0.91545894,0,45.987743)"
       gradientUnits="userSpaceOnUse"
       id="radialGradient3212-0"
       xlink:href="#linearGradient5193-7-5"
       inkscape:collect="always" />
    <radialGradient
       cx="289.64285"
       cy="543.9693"
       r="14.785714"
       fx="289.64285"
       fy="543.9693"
       id="radialGradient78"
       xlink:href="#linearGradient5193-7-7"
       gradientUnits="userSpaceOnUse"
       gradientTransform="matrix(1,0,0,0.91545894,0,45.987743)" />
    <linearGradient
       id="linearGradient5193-7-7">
      <stop
         id="stop5195-4-1"
         style="stop-color:#dd0909;stop-opacity:1"
         offset="0" />
      <stop
         id="stop5205-0-8"
         style="stop-color:#ef3636;stop-opacity:0.49803922"
         offset="0.5" />
      <stop
         id="stop5197-9-49"
         style="stop-color:#ab4e4e;stop-opacity:0.54315788"
         offset="1" />
    </linearGradient>
    <radialGradient
       r="14.785714"
       fy="543.9693"
       fx="289.64285"
       cy="543.9693"
       cx="289.64285"
       gradientTransform="matrix(1,0,0,0.91545894,0,45.987743)"
       gradientUnits="userSpaceOnUse"
       id="radialGradient3297"
       xlink:href="#linearGradient5193-7-7"
       inkscape:collect="always" />
    <radialGradient
       inkscape:collect="always"
       xlink:href="#linearGradient5193-7-7"
       id="radialGradient3829"
       gradientUnits="userSpaceOnUse"
       gradientTransform="matrix(1,0,0,0.91545894,0,45.987743)"
       cx="289.64285"
       cy="543.9693"
       fx="289.64285"
       fy="543.9693"
       r="14.785714" />
  </defs>
  <sodipodi:namedview
     id="base"
     pagecolor="#ffffff"
     bordercolor="#666666"
     borderopacity="1.0"
     inkscape:pageopacity="0.0"
     inkscape:pageshadow="2"
     inkscape:zoom="3.5985119"
     inkscape:cx="49.88052"
     inkscape:cy="55.300636"
     inkscape:document-units="px"
     inkscape:current-layer="layer1"
     showgrid="false"
     inkscape:window-width="1011"
     inkscape:window-height="616"
     inkscape:window-x="200"
     inkscape:window-y="70"
     inkscape:window-maximized="0"
     fit-margin-top="0"
     fit-margin-left="0"
     fit-margin-right="0"
     fit-margin-bottom="0" />
  <metadata
     id="metadata3126">
    <rdf:RDF>
      <cc:Work
         rdf:about="">
        <dc:format>image/svg+xml</dc:format>
        <dc:type
           rdf:resource="http://purl.org/dc/dcmitype/StillImage" />
        <dc:title />
      </cc:Work>
    </rdf:RDF>
  </metadata>
  <g
     inkscape:label="Layer 1"
     inkscape:groupmode="layer"
     id="layer1"
     transform="translate(-55.790127,-844.0656)">
    <g
       transform="matrix(0.19527969,0.33142262,-0.37377282,0.17315359,215.18462,633.25974)"
       id="g72">
      <path
         inkscape:connector-curvature="0"
         d="m 269.4375,371.0625 c -0.54115,3.35055 -0.0221,15.8971 -0.0625,27.1875 -0.0291,8.13566 0.33725,14.93904 -3.46875,20.40625 -1.70136,2.44393 -6.00916,6.98676 -8.09375,3.6875 -1.84595,-2.92155 -4.40598,-31.02183 -8.8125,-35.625 -3.24255,8.96329 7.21494,18.23381 3.3125,31.0625 -1.93641,-2.68401 -3.44506,-21.69611 -16.21875,-30.0625 0.36424,1.4234 1.03836,4.11533 3.78125,10.375 3.09835,7.07085 11.42027,18.14574 8.5625,27.21875 -1.27717,4.05481 -7.97887,5.11205 -10.125,7.78125 -10.4661,2.99767 -14.0833,9.87728 -17.71875,15.96875 -5.43973,9.11461 -1.55964,14.13276 1.34375,21.375 11.44144,28.53954 7.90273,51.95501 -0.0625,66.25 -3.16378,5.67796 -10.12736,14.6721 -14.03125,17.0625 -8.48608,4.3685 -18.92364,4.87409 -28.53125,1.375 -3.5173,-5.67885 -7.34796,-11.20102 -6.25,-19.1875 0.41239,-1.4559 1.3238,-2.69199 3.03125,-3.53125 8.26893,-4.06447 11.3125,-12.09375 11.3125,-12.09375 -4.11554,2.09637 -7.68131,5.13553 -12.40625,6.875 -1.85093,0.68142 -3.18722,1.30261 -4.1875,1.875 -0.62611,-2.09556 -1.31548,-4.04015 -2,-6.0937 -0.34607,-3.94339 2.18011,-11.42231 8.03125,-25.90625 0,0 -9.12407,3.61092 -8.71875,14.40625 0.11209,2.98548 -6.65625,15.25 -6.65625,15.25 -0.78985,-1.78131 -2.52086,-3.40324 -2.34375,-5.34375 0.25598,-2.80489 0.19284,-3.54602 0.375,-7.28125 0.39496,-8.09862 -2.53047,-8.12314 -4.75,-13.625 1.16967,14.66169 2.15248,14.79462 0.21875,19.09375 C 149.7481,517.10849 135.38887,500.8631 127,493.40625 c 3.12042,4.86841 4.58284,10.48928 10.0625,15.21875 2.60761,2.25064 7.44391,5.35456 10.1875,8.65625 -6.64203,-4.42249 -17.65375,-6.83204 -28.09375,-7.8125 11.47603,10.23051 16.84409,3.36621 32.8125,15.65625 3.43705,2.64532 4.78343,7.2142 4.84375,11.9375 1.25644,6.1447 -3.14042,10.67417 -8.46875,14.9375 -4.95758,0.0296 -9.96016,2.88669 -15.21875,-3.21875 -3.69396,-1.94704 -7.43665,-5.5029 -9.90625,-11.875 -2.18117,-5.62787 -6.19192,-7.01642 -9.40625,-14.28125 13.23928,33.56841 1.88877,20.63267 -9.5625,6.375 0,0 -0.73726,9.44045 3.40625,11.09375 4.2631,3.49567 5.43619,8.28527 8.59375,13.5 0.37466,0.9087 0.71875,1.75 0.71875,1.75 -5.49488,-3.48136 -13.11924,-2.37888 -18,-4.625 -6.181426,-2.84476 -5.982608,-7.33218 -12.6875,-15.4375 -3.570696,-4.31657 -7.186149,-2.48446 -12.1875,-7.4375 4.660832,10.14589 22.279977,13.3962 -6.75,16.21875 17.425573,2.97701 27.238667,4.88254 28.21875,12.625 -3.204372,5.6643 -4.092683,5.55379 -8.03125,5.53125 -6.309814,-0.0361 -12.030752,-1.74021 -18.0625,-2.5625 6.835674,1.17719 7.408807,5.57469 7.21875,7.71875 -0.254269,2.86887 -3.431612,3.79155 -9.78125,7.5 7.420327,-2.00485 14.449598,-3.72684 22.46875,-7.65625 8.104314,-3.97115 7.074706,-6.59535 14.90625,-8.6875 9.73588,-2.60089 10.06259,1.8666 15.78125,5.375 4.85635,4.3227 7.05098,8.14877 10.09375,13.34375 -1.16773,4.95442 -9.28643,15.41241 -19,19.125 -10.94991,11.26808 -22.721456,2.54208 -33.25,6.125 10.953229,1.65586 14.140447,3.34275 10.75,6.21875 -5.614763,4.76281 -7.564964,6.74086 -13.59375,10.625 20.751096,-7.73986 15.01336,-2.674 27.9375,-11 1.99277,-1.28379 3.54747,-2.04663 4.75,-2.4375 l 2.8125,-0.0312 c 2.03776,1.28188 0.0825,6.55257 -0.9375,8.90625 -2.62741,6.06274 -3.02767,16.07948 -9.5,17.40625 -6.793065,1.39253 -8.75,16.0625 -8.75,16.0625 10.33746,-9.4742 16.58438,-12.57273 8.46875,6.8125 3.99474,-6.18853 9.6201,-13.8274 12.375,-23.5625 3.81266,-10.95581 3.05421,-21.96742 7.34375,-25.6875 7.39347,-1.85437 14.19682,-6.36432 23.375,-0.1875 9.11579,13.47354 7.15447,16.25735 9.625,29.53125 0.41324,6.34251 -1.79073,14.55833 -8.03125,24.4375 3.14835,-3.62616 10.31478,-14.04881 12.625,-8.6875 1.25506,2.91263 8.7359,11.016 11.53125,13.875 -4.65018,-9.12401 -8.89476,-24.1906 -7.4375,-33.75 2.81939,-7.81579 1.96335,-16.65254 12.65625,-22.28125 10.57539,-0.45459 20.9859,-0.29088 29.6875,6.28125 5.28755,4.42354 6.09896,6.02593 6.46875,10.75 0.53148,8.08872 -2.30813,7.98749 -3.46875,16.9375 -1.14842,8.85597 -0.48221,16.0475 0,23.71875 1.47485,-7.20383 1.30194,-10.52611 3.9375,-11.6875 1.9697,-0.868 6.31663,-1.72147 9.625,4.375 -2.71429,-5.44893 -6.15983,-10.31669 -8.21875,-16.28125 -1.28517,-3.72305 -1.68028,-4.55376 2.65625,-9.40625 7.64752,-1.55617 12.62011,7.16992 21.03125,22.71875 -6.6419,-28.40055 2.08252,-12.78373 13.1875,-11.625 -6.29597,-3.14753 -5.70343,-7.15948 -10.9375,-9.15625 -9.82819,-3.74947 -14.04093,-2.12075 -18.71875,-7.0625 -5.21079,-5.68651 -5.26569,-10.8653 -9.875,-15.53125 0.83565,0.0333 14.3491,0.61589 17.15625,3.90625 2.89545,3.39387 11.625,-0.3125 11.625,-0.3125 -17.17822,-6.27068 -33.07279,-12.92391 2.96875,-11.15625 -7.91208,-0.7132 -11.04174,-6.75209 -16.5625,-4.3125 -8.90552,3.93529 -15.10978,5.58666 -19.34375,4.78125 -3.76681,0.94056 -12.90138,-11.62811 -13.03125,-22.18755 4.93465,-8.13809 9.51494,-17.96249 19.375,-20.8125 10.29611,-6.37465 13.84865,-16.41056 17.1875,-26.5625 5.69931,-17.32902 11.00168,-40.05347 -1.65625,-67.59375 -2.33631,-5.0832 -3.94932,-11.19249 -0.875,-16.34375 2.4651,-4.13043 8.33252,-8.55607 20.84375,-10.84375 13.72512,3.10029 31.11909,9.05095 41.5625,14.78125 -18.81112,-12.95118 0.44975,-8.31204 11.5625,-7.8125 -7.03693,-1.91374 -15.89823,-3.12249 -24.125,-4.34375 2.72574,-2.34053 6.33293,-4.37639 9.5625,-6.4375 2.4427,-1.55895 4.25941,-2.83313 6.71875,-4.75 -3.63995,1.12008 -6.59028,3.82154 -8.90625,1.875 -1.78147,-1.4973 -1.2107,-3.33531 0.21875,-7 -0.88082,2.32057 -2.74905,3.65037 -3.9375,5.78125 -2.12595,3.81184 -7.38148,9.0695 -13.8125,8.875 -6.73923,-0.53495 -11.77132,-4.64027 -18.0625,-6.625 1.46514,-5.78365 6.95931,-3.6595 10.5,-5.34375 2.64356,-1.25753 5.68383,-1.81337 8.03125,-3.5625 2.61994,-1.95221 3.03895,-1.91914 6.34375,-7.4375 1.53023,-2.98563 9.42889,-9.33552 15.25,-12.3125 4.68339,-2.39519 10.42147,-2.93099 15.21875,-4.15625 -8.64977,0.59265 -14.89905,-0.14393 -9.9375,-7.4375 -6.8062,4.52394 -9.39768,9.24275 -12.21875,12.5625 -2.84565,3.34868 -5.89029,5.25234 -6.84375,3.65625 -1.80692,-3.02482 -2.44492,-19.18942 0.15625,-26.3125 1.56784,-4.29336 6.40519,-10.40768 7.0625,-13.78125 -3.80577,1.61131 -6.59399,15.55818 -11.875,-0.5 z"
         transform="matrix(0.46306506,-0.8863243,0.8863243,0.46306506,-34.823029,483.4593)"
         id="path933"
         style="fill:none;stroke:#000000;stroke-width:1;stroke-miterlimit:4;stroke-dasharray:none" />
      <path
         inkscape:connector-curvature="0"
         d="m 303.92857,543.9693 a 14.285715,13.035715 0 1 1 -28.57143,0 14.285715,13.035715 0 1 1 28.57143,0 z"
         transform="matrix(-0.32109214,-0.94704796,0.94704796,-0.32109214,132.95417,1057.0959)"
         id="path76"
         style="fill:url(#radialGradient3829);fill-opacity:1;stroke:#000000;stroke-width:1;stroke-linejoin:round;stroke-miterlimit:4;stroke-opacity:1;stroke-dasharray:none;stroke-dashoffset:0" />
    </g>
  </g>
</svg>
